<svg width="512" height="512" viewBox="0 0 512 512" fill="none" xmlns="http://www.w3.org/2000/svg">
  <rect width="512" height="512" rx="128" fill="#ffffff"/>
  <path d="M256 112C176.5 112 112 176.5 112 256C112 335.5 176.5 400 256 400C335.5 400 400 335.5 400 256C400 176.5 335.5 112 256 112ZM256 368C194.1 368 144 317.9 144 256C144 194.1 194.1 144 256 144C317.9 144 368 194.1 368 256C368 317.9 317.9 368 256 368Z" fill="#6366F1"/>
  <path d="M256 160C203.2 160 160 203.2 160 256C160 308.8 203.2 352 256 352C308.8 352 352 308.8 352 256C352 203.2 308.8 160 256 160ZM256 320C220.7 320 192 291.3 192 256C192 220.7 220.7 192 256 192C291.3 192 320 220.7 320 256C320 291.3 291.3 320 256 320Z" fill="#4F46E5"/>
  <path d="M256 208C238.3 208 224 222.3 224 240C224 257.7 238.3 272 256 272C273.7 272 288 257.7 288 240C288 222.3 273.7 208 256 208Z" fill="#4338CA"/>
</svg> 